<?xml version="1.0" encoding="utf-8"?>
<!-- Generator: Adobe Illustrator 26.5.0, SVG Export Plug-In . SVG Version: 6.00 Build 0)  -->
<svg version="1.0" id="katman_1" xmlns="http://www.w3.org/2000/svg" xmlns:xlink="http://www.w3.org/1999/xlink" x="0px" y="0px"
	 viewBox="0 0 480 350" style="enable-background:new 0 0 480 350;" xml:space="preserve">
<style type="text/css">
	.st0{fill:#737373;}
	.st1{fill:#BFBFBF;}
	.st2{fill:url(#SVGID_1_);}
	.st3{fill:#FFFFFF;}
	.st4{fill:#E0E0E0;}
	.st5{fill:#D1D1D1;}
	.st6{fill:#4285F4;}
	.st7{fill:#E6E6E6;}
	.st8{fill:#BABABA;}
	.st9{fill:#4D4D4D;}
</style>
<g>
	<polygon class="st0" points="277.98,61 202.02,61 183.1,80.06 183.1,98.98 202.02,98.98 202.02,80.06 277.98,80.06 277.98,98.98 
		296.9,98.98 296.9,80.06 	"/>
	<polygon class="st1" points="202.02,61 202.02,80.06 277.98,80.06 277.98,61 	"/>
	
		<radialGradient id="SVGID_1_" cx="-351.8388" cy="595.7665" r="0.8287" gradientTransform="matrix(152.3284 112.7273 112.7273 -152.3285 -13396.6465 130567.4297)" gradientUnits="userSpaceOnUse">
		<stop  offset="0" style="stop-color:#F1F2F2"/>
		<stop  offset="1" style="stop-color:#E6E7E8"/>
	</radialGradient>
	<path class="st2" d="M148.4,98.98l-36.4,36.4v134.18c0,10.51,8.54,18.92,18.92,18.92h218.15c10.51,0,18.92-8.54,18.92-18.92V135.51
		l-36.53-36.53H148.4z"/>
	<polygon class="st3" points="140.52,170.08 339.61,170.08 339.61,288.61 140.52,288.61 	"/>
	<polygon class="st4" points="148.4,98.98 112,135.38 112,170.08 368,170.08 368,135.51 331.47,98.98 	"/>
	<polygon class="st5" points="154.71,274.29 240,274.29 240,288.48 154.71,288.48 	"/>
	<path class="st6" d="M140.52,148c0-8.15,6.57-14.72,14.72-14.72h169.53c8.15,0,14.72,6.57,14.72,14.72v22.08H140.52V148z"/>
	<path class="st7" d="M168.9,151.15c0,3.94-3.15,7.1-7.1,7.1s-7.1-3.15-7.1-7.1c0-3.94,3.15-7.1,7.1-7.1S168.9,147.21,168.9,151.15
		 M192.56,151.15c0,3.94-3.15,7.1-7.1,7.1s-7.1-3.15-7.1-7.1c0-3.94,3.15-7.1,7.1-7.1S192.56,147.21,192.56,151.15"/>
	<path class="st8" d="M339.48,226.19l-29.83-29.83l-9.99,30.88l-40.74-40.61l-1.18,62.69l15.11,23.66
		c2.23-0.39-11.3,15.51-11.3,15.51h77.93V226.19z"/>
	<path class="st9" d="M320.82,225.01c0-16.82-9.86-31.28-23.92-38.24v39.95l-18.79,10.12l-19.06-10.12v-40.08
		c-14.06,6.97-23.65,21.55-23.65,38.24c0,16.82,9.72,31.28,23.79,38.24v25.36h37.85v-25.36
		C310.97,256.29,320.82,241.7,320.82,225.01"/>
	<polygon class="st5" points="154.71,184.27 221.08,184.27 221.08,260.1 154.71,260.1 	"/>
</g>
</svg>
