<?xml version="1.0" standalone="no"?>
<!DOCTYPE svg PUBLIC "-//W3C//DTD SVG 20010904//EN"
 "http://www.w3.org/TR/2001/REC-SVG-20010904/DTD/svg10.dtd">
<svg version="1.0" xmlns="http://www.w3.org/2000/svg"
 width="512.000000pt" height="512.000000pt" viewBox="0 0 512.000000 512.000000"
 preserveAspectRatio="xMidYMid meet">

<g transform="translate(0.000000,512.000000) scale(0.100000,-0.100000)"
fill="#000000" stroke="none">
<path d="M205 4791 c-22 -10 -52 -31 -67 -47 -55 -59 -58 -80 -58 -369 l0
-265 2480 0 2480 0 0 265 c0 289 -3 310 -58 369 -15 16 -45 37 -67 47 -39 18
-123 19 -2355 19 -2232 0 -2316 -1 -2355 -19z m617 -290 c49 -55 49 -107 0
-162 -70 -78 -202 -25 -202 81 0 105 133 158 202 81z m453 9 c54 -51 57 -125
6 -174 -80 -76 -213 -12 -198 96 5 41 36 83 72 99 32 14 95 3 120 -21z m469
-9 c26 -27 31 -39 31 -81 0 -43 -5 -54 -33 -82 -28 -28 -39 -33 -82 -33 -43 0
-54 5 -82 33 -28 28 -33 39 -33 81 0 52 25 92 70 112 37 16 96 3 129 -30z"/>
<path d="M80 2583 c0 -1302 1 -1370 19 -1408 23 -51 79 -101 128 -114 23 -7
166 -11 361 -11 l322 0 0 67 c0 81 25 139 78 183 64 53 119 62 335 58 173 -3
196 -6 232 -25 88 -47 135 -127 135 -229 l0 -54 35 0 35 0 0 264 c0 145 4 287
10 315 14 73 58 133 122 165 51 26 56 26 263 26 208 0 212 0 264 -26 64 -32
105 -86 120 -155 6 -29 11 -166 11 -319 l0 -270 35 0 34 0 3 542 c3 508 4 545
22 578 26 49 64 88 111 113 37 21 54 22 255 22 176 0 221 -3 250 -16 53 -24
96 -65 119 -112 20 -42 21 -57 21 -585 l0 -542 40 0 40 0 0 746 c0 559 3 757
12 788 16 54 93 131 144 145 22 6 128 11 242 11 224 0 250 -5 311 -63 18 -18
42 -50 52 -72 18 -38 19 -81 19 -797 l0 -758 298 0 c176 0 312 4 335 11 49 13
105 63 128 114 18 38 19 106 19 1408 l0 1367 -2480 0 -2480 0 0 -1367z m4075
1052 c14 -13 25 -34 25 -47 0 -59 -54 -396 -67 -416 -20 -32 -60 -46 -94 -32
-51 22 -57 59 -32 199 l6 35 -99 -85 c-692 -594 -1529 -1094 -2437 -1456 -270
-107 -434 -163 -454 -156 -36 12 -63 46 -63 78 0 45 28 65 150 109 899 326
1708 764 2405 1305 133 104 369 300 373 310 1 4 -35 6 -80 3 -74 -3 -85 -2
-105 17 -32 30 -39 66 -19 97 25 37 47 43 216 52 256 15 248 15 275 -13z
m-2939 -62 l20 -58 75 -25 c41 -14 91 -36 112 -49 l39 -24 61 27 61 26 48 -47
c26 -26 48 -52 48 -58 0 -5 -11 -33 -24 -62 l-25 -52 31 -57 c17 -31 38 -82
47 -112 17 -56 18 -57 79 -81 l63 -24 -3 -71 -3 -71 -61 -24 c-60 -23 -61 -24
-74 -74 -7 -28 -27 -79 -45 -113 l-33 -62 26 -57 25 -56 -48 -49 c-27 -28 -55
-50 -62 -50 -7 0 -33 10 -57 22 l-45 22 -78 -37 c-43 -20 -93 -40 -112 -44
-37 -10 -41 -14 -71 -85 l-19 -48 -71 0 c-69 0 -71 1 -81 28 -27 77 -42 94
-100 112 -30 9 -79 30 -108 45 -56 31 -46 32 -144 -8 -26 -11 -31 -8 -78 40
l-52 51 26 56 26 56 -33 63 c-18 34 -39 86 -46 114 -13 51 -15 52 -72 74 l-59
22 3 74 3 75 54 22 c53 21 54 22 80 96 14 41 36 91 49 111 l22 36 -27 62 -27
62 50 50 51 50 58 -26 59 -26 70 35 c39 19 90 40 114 46 29 7 46 18 51 33 5
12 16 39 24 60 l16 37 73 0 73 0 21 -57z"/>
<path d="M1041 3214 c-96 -26 -172 -90 -213 -179 -35 -76 -33 -191 5 -267 30
-62 83 -115 149 -150 36 -19 58 -23 138 -23 80 0 102 4 138 23 66 35 119 88
149 150 38 76 40 191 5 267 -43 93 -130 163 -230 184 -65 14 -74 13 -141 -5z"/>
<path d="M3662 2557 l-22 -23 0 -1091 0 -1092 26 -20 c25 -20 40 -21 209 -21
177 0 182 1 203 23 l22 23 0 1092 c0 1079 0 1092 -20 1112 -19 19 -33 20 -208
20 -184 0 -189 -1 -210 -23z"/>
<path d="M2824 2136 c-17 -8 -34 -24 -37 -37 -4 -13 -7 -410 -7 -882 l0 -858
25 -24 c24 -25 26 -25 210 -25 172 0 186 1 205 20 20 20 20 33 20 898 l0 879
-21 19 c-19 17 -40 19 -193 21 -128 2 -179 -1 -202 -11z"/>
<path d="M1949 1641 l-24 -19 0 -637 0 -637 24 -19 c21 -17 41 -19 206 -19
165 0 185 2 206 19 l24 19 0 637 0 637 -24 19 c-21 17 -41 19 -206 19 -165 0
-185 -2 -206 -19z"/>
<path d="M1097 1180 l-27 -21 0 -405 c0 -391 1 -405 20 -424 19 -19 33 -20
205 -20 184 0 186 0 210 25 l25 24 0 394 c0 374 -1 396 -19 418 -19 23 -24 24
-203 27 -175 3 -185 2 -211 -18z"/>
</g>
</svg>
