<?xml version="1.0" standalone="no"?>
<!DOCTYPE svg PUBLIC "-//W3C//DTD SVG 20010904//EN"
 "http://www.w3.org/TR/2001/REC-SVG-20010904/DTD/svg10.dtd">
<svg version="1.0" xmlns="http://www.w3.org/2000/svg"
 width="2688.000000pt" height="1479.000000pt" viewBox="0 0 2688.000000 1479.000000"
 preserveAspectRatio="xMidYMid meet">

<g transform="translate(0.000000,1479.000000) scale(0.100000,-0.100000)"
fill="#FF6B00" stroke="none">
<path d="M7720 14363 c-33 -12 -50 -37 -50 -71 0 -99 -78 -186 -577 -644 -473
-435 -1175 -1084 -1967 -1822 -736 -685 -830 -772 -1096 -1009 -124 -110 -236
-211 -250 -223 l-25 -22 -685 -17 c-377 -9 -838 -19 -1025 -23 l-340 -7 -376
-381 c-428 -434 -694 -716 -716 -758 -31 -60 7 -95 123 -115 56 -10 377 -24
817 -37 l197 -6 0 -826 0 -825 318 6 c434 9 1236 30 1239 32 4 2 23 1178 23
1414 l0 204 753 -7 c413 -3 1221 -9 1795 -12 l1042 -7 0 -811 c1 -803 8 -1126
29 -1203 6 -22 24 -57 41 -78 16 -20 33 -54 37 -74 12 -54 7 -905 -6 -1216
-23 -546 -40 -725 -74 -789 -18 -35 -21 -58 -22 -162 0 -129 6 -147 52 -165
57 -21 61 -149 68 -1789 7 -1709 18 -2117 56 -2178 6 -10 28 -29 47 -43 31
-21 47 -24 126 -24 82 0 98 3 156 32 36 18 105 66 154 108 113 98 313 257 591
473 l220 171 6 -77 c4 -42 10 -164 14 -270 4 -105 9 -192 11 -192 2 0 57 39
124 86 l120 86 0 1651 c0 949 4 1704 10 1774 5 67 16 138 24 158 13 30 20 35
48 35 65 0 78 28 78 165 0 137 -13 165 -77 165 -44 0 -61 28 -73 121 -5 42
-10 451 -10 955 l0 882 94 4 c83 3 98 7 130 31 75 58 136 202 336 802 l140
420 -199 465 c-110 256 -199 466 -198 466 1 1 2063 7 4582 13 9834 24 12156
35 12628 61 280 15 290 19 247 94 -68 120 -397 492 -907 1024 l-108 113 -100
9 c-272 26 -1625 40 -5640 56 l-1690 7 -695 264 c-1249 475 -2509 935 -3415
1248 -1321 456 -5270 1807 -5613 1920 -62 20 -125 47 -138 59 -33 28 -43 78
-44 209 l0 107 -172 -1 c-95 0 -180 -3 -188 -6z m615 -534 c83 -28 391 -139
685 -246 1242 -453 3418 -1218 5200 -1828 934 -320 2411 -833 3284 -1142 l109
-38 -74 -6 c-41 -4 -1280 -7 -2754 -8 -2543 -2 -4666 -15 -4894 -29 l-105 -7
-94 -115 c-564 -689 -679 -822 -748 -869 l-49 -33 -119 5 c-65 3 -122 9 -126
14 -4 4 -66 487 -139 1073 -72 586 -166 1317 -207 1625 -41 308 -108 807 -149
1110 -49 365 -70 552 -63 556 15 10 76 -6 243 -62z m-725 -9 c0 -28 -7 -94
-15 -148 -31 -210 -247 -1925 -345 -2746 -22 -181 -42 -331 -44 -334 -17 -16
-450 -24 -1743 -29 -934 -3 -1463 -2 -1463 4 0 21 675 650 1735 1618 252 231
635 582 850 780 215 198 472 434 571 525 261 241 422 380 439 380 11 0 15 -12
15 -50z m294 -603 c37 -48 59 -154 54 -257 -6 -114 -39 -182 -159 -322 -51
-60 -94 -106 -97 -103 -11 10 56 542 78 626 13 47 50 89 79 89 11 0 31 -15 45
-33z m96 -736 c23 -81 107 -698 96 -708 -11 -11 -426 382 -426 404 0 17 167
238 234 308 62 65 77 65 96 -4z m-160 -761 c195 -153 249 -204 237 -219 -15
-18 -469 -423 -519 -463 l-38 -30 0 49 c0 102 77 701 100 785 l11 38 57 -42
c31 -23 100 -76 152 -118z m354 -462 c8 -43 25 -217 86 -828 27 -278 52 -518
55 -533 3 -16 1 -27 -4 -25 -15 5 -559 508 -715 660 l-141 137 100 98 c56 54
184 168 285 253 101 85 214 181 250 212 36 31 68 57 72 57 4 1 10 -14 12 -31z
m-643 -961 c105 -93 209 -188 542 -502 l266 -250 -397 -3 c-380 -3 -646 8
-665 27 -10 10 11 161 69 506 36 211 61 295 87 295 8 0 52 -33 98 -73z m3502
15 l29 -12 -32 -56 c-94 -167 -365 -574 -381 -574 -16 0 -101 116 -253 345
-84 127 -165 250 -180 273 l-27 44 408 -4 c289 -3 416 -8 436 -16z m1167 8
c184 -11 252 -19 271 -31 19 -12 -15 -76 -137 -260 -135 -202 -254 -359 -274
-359 -9 0 -40 31 -68 69 -48 64 -362 534 -383 574 -9 16 4 17 213 17 123 0
293 -5 378 -10z m3063 -5 c15 -10 12 -20 -39 -105 -68 -116 -271 -423 -308
-467 -15 -18 -32 -33 -36 -33 -13 0 -110 130 -267 360 -77 113 -148 218 -158
233 l-18 29 404 -4 c256 -2 410 -7 422 -13z m1227 5 c123 -6 229 -15 234 -20
11 -11 -4 -33 -262 -412 -96 -142 -179 -255 -183 -252 -11 7 -303 446 -358
539 -65 110 -65 129 1 145 48 11 308 11 568 0z m7230 -5 c0 -20 -27 -62 -168
-265 -155 -222 -251 -342 -270 -338 -9 2 -38 30 -65 63 -51 63 -346 480 -353
500 -6 14 71 19 541 36 159 5 291 12 294 15 9 9 21 3 21 -11z m1193 6 c59 -5
111 -11 114 -14 8 -8 -73 -149 -240 -417 -76 -124 -141 -226 -142 -228 -3 -3
-187 280 -323 498 -50 79 -89 147 -86 150 16 15 513 23 677 11z m-14860 -203
c235 -385 351 -590 337 -598 -25 -16 -262 -22 -582 -17 -314 5 -388 11 -395
33 -7 21 490 784 512 784 2 0 59 -91 128 -202z m12141 192 c65 -5 121 -11 123
-14 3 -3 -14 -38 -37 -78 -61 -103 -312 -476 -349 -518 l-31 -35 -20 25 c-32
39 -260 384 -330 498 -34 57 -59 106 -56 110 4 3 28 9 54 13 73 10 513 10 646
-1z m-15969 -11 c4 -6 -8 -35 -27 -66 -56 -89 -303 -434 -348 -483 l-40 -45
-31 35 c-56 65 -332 459 -368 528 -7 12 -9 27 -6 32 9 14 812 13 820 -1z m896
1 c22 -12 24 -48 9 -131 -6 -30 -14 -112 -20 -183 -10 -148 -23 -178 -60 -135
-32 38 -182 265 -236 357 -39 68 -45 85 -33 93 20 12 316 11 340 -1z m6763 4
c13 -5 13 -10 4 -27 -13 -25 -416 -638 -428 -650 -4 -5 -59 76 -121 180 -151
252 -230 371 -278 421 -23 23 -41 46 -41 52 0 9 32 16 100 23 63 7 748 7 764
1z m5589 -10 c17 -10 16 -14 -12 -68 -65 -124 -300 -455 -365 -515 -32 -30
-19 -43 -150 154 -132 198 -261 414 -252 422 16 16 126 21 436 19 206 -1 332
-5 343 -12z m1381 10 c25 -4 46 -11 46 -15 0 -15 -124 -211 -251 -399 -148
-218 -153 -224 -171 -217 -28 10 -408 582 -408 613 0 7 12 15 28 17 45 7 706
7 756 1z m-17566 -61 c-19 -27 -77 -109 -128 -183 -182 -262 -319 -440 -338
-440 -24 0 -79 40 -161 116 -67 62 -511 538 -511 548 0 3 264 6 586 6 l586 0
-34 -47z m1532 42 c0 -9 -205 -319 -273 -415 -87 -121 -175 -228 -198 -241
-18 -9 -27 -4 -65 38 -72 78 -277 377 -418 611 -6 9 92 12 473 12 265 0 481
-2 481 -5z m6568 -49 c34 -44 397 -577 457 -668 l17 -28 -506 0 -507 0 32 60
c78 147 440 690 459 690 4 0 26 -24 48 -54z m3060 -368 l231 -346 -92 -7
c-133 -9 -874 -11 -883 -2 -19 19 214 419 428 735 l30 43 27 -38 c15 -21 132
-194 259 -385z m3702 418 c0 -5 -261 -379 -371 -533 -24 -34 -49 -62 -54 -62
-16 -1 -107 96 -167 179 -30 41 -107 153 -172 248 l-117 172 440 0 c243 0 441
-2 441 -4z m3102 -88 c88 -124 398 -594 423 -641 10 -20 16 -40 11 -44 -10
-11 -697 -17 -852 -8 -66 4 -127 10 -134 15 -9 6 1 30 41 96 123 206 428 674
439 674 4 0 36 -42 72 -92z m-15881 -319 l238 -357 -92 -6 c-183 -11 -658 -18
-781 -11 -123 7 -126 8 -120 29 25 86 339 570 444 685 35 38 42 42 56 30 9 -7
124 -174 255 -370z m11778 208 c121 -182 371 -573 371 -582 0 -3 -234 -5 -520
-5 l-520 0 172 258 c239 358 355 511 378 497 6 -4 59 -79 119 -168z m-15423
-116 c-3 -135 -9 -279 -13 -318 l-6 -73 -324 0 c-277 0 -323 2 -316 14 4 8
151 160 327 337 278 281 320 320 329 304 6 -12 8 -102 3 -264z m1911 224 c39
-52 453 -663 453 -670 0 -7 -962 -6 -999 1 l-31 6 57 82 c69 99 343 474 392
536 56 72 84 101 91 93 4 -5 20 -26 37 -48z m9196 -7 c71 -101 358 -548 389
-607 16 -31 25 -58 20 -63 -5 -5 -56 -4 -118 2 -60 5 -197 11 -304 11 -107 1
-275 4 -373 8 l-178 6 162 235 c252 366 329 470 349 470 5 0 28 -28 53 -62z
m2806 -30 c177 -240 430 -622 419 -634 -3 -3 -52 -10 -109 -15 -117 -12 -863
-8 -875 4 -13 13 29 84 191 327 160 240 283 410 297 410 4 0 39 -42 77 -92z
m2906 -87 c52 -80 155 -240 228 -356 l133 -210 -500 -3 c-274 -1 -501 0 -503
2 -5 4 371 560 455 674 52 71 55 73 73 56 11 -9 62 -83 114 -163z m5523 52
c181 -258 362 -546 362 -576 0 -39 -28 -42 -460 -42 -228 0 -432 4 -453 8
l-38 8 27 47 c65 113 456 682 468 682 3 0 45 -57 94 -127z m-1372 5 c42 -57
152 -216 245 -355 l168 -251 -92 -7 c-151 -11 -885 -11 -896 0 -17 17 40 120
203 365 138 209 252 350 282 350 7 0 47 -46 90 -102z m-16023 -118 c154 -229
298 -455 304 -480 7 -25 -74 -30 -452 -30 -290 0 -469 9 -495 25 -39 24 440
702 488 693 9 -2 79 -95 155 -208z m18787 24 c91 -102 219 -254 287 -337 l122
-152 -255 -3 c-140 -1 -369 -1 -509 0 l-255 3 186 285 c103 157 202 309 221
338 18 28 35 52 36 52 2 0 77 -84 167 -186z m-5609 95 c31 -41 138 -193 237
-339 l180 -265 -56 -6 c-91 -11 -793 -22 -860 -14 -49 5 -62 11 -62 24 0 23
99 183 222 359 148 212 247 327 273 319 6 -2 35 -37 66 -78z m-17568 -319 c83
-91 164 -180 181 -197 l30 -33 -268 0 -268 0 4 253 c2 138 8 260 12 270 8 16
19 9 83 -55 41 -40 143 -147 226 -238z m6506 -858 c18 -48 96 -244 172 -435
l139 -348 -65 -247 c-35 -136 -68 -263 -73 -282 l-8 -35 -170 -6 c-93 -4 -350
-10 -571 -14 l-403 -8 0 732 0 731 473 0 472 0 34 -88z m-389 -2367 l0 -416
-22 12 c-13 7 -183 102 -378 212 -690 390 -770 444 -770 530 0 35 32 58 92 67
29 4 284 8 566 9 l512 1 0 -415z m-1031 -97 c300 -161 935 -528 965 -557 12
-13 16 -26 11 -41 -13 -41 -264 -209 -710 -477 -249 -150 -340 -197 -360 -190
-38 15 -40 44 -40 612 0 543 6 705 27 705 6 0 54 -23 107 -52z m1016 -985 c11
-165 12 -440 2 -450 -10 -9 -627 -5 -784 5 l-102 7 147 95 c427 275 718 460
724 460 3 0 9 -53 13 -117z m1 -1095 c-7 -339 -14 -448 -28 -448 -32 0 -960
675 -972 707 -4 9 -4 18 -1 21 13 14 169 19 569 21 l439 1 -7 -302z m-855
-121 c476 -353 722 -550 734 -588 10 -29 -9 -53 -97 -124 -95 -75 -473 -347
-718 -515 -91 -62 -177 -122 -192 -132 l-28 -19 0 802 c0 640 3 799 13 791 6
-5 136 -102 288 -215z m857 -1757 c0 -439 -7 -601 -24 -607 -14 -5 -164 94
-434 287 -118 84 -315 223 -437 307 -123 85 -223 156 -223 158 0 2 105 74 233
161 368 250 676 467 778 547 l94 75 6 -262 c4 -143 6 -443 7 -666z m-972 -233
c421 -295 834 -623 834 -663 0 -16 -151 -134 -590 -463 -411 -308 -406 -305
-416 -283 -4 9 -9 358 -12 776 l-4 758 30 -17 c16 -10 87 -58 158 -108z"/>
</g>
</svg>
