<?xml version="1.0" standalone="no"?>
<!DOCTYPE svg PUBLIC "-//W3C//DTD SVG 20010904//EN"
 "http://www.w3.org/TR/2001/REC-SVG-20010904/DTD/svg10.dtd">
<svg version="1.0" xmlns="http://www.w3.org/2000/svg"
 width="512.000000pt" height="512.000000pt" viewBox="0 0 512.000000 512.000000"
 preserveAspectRatio="xMidYMid meet">

<g transform="translate(0.000000,512.000000) scale(0.100000,-0.100000)"
fill="#000000" stroke="none">
<path d="M1092 5103 c-18 -9 -41 -28 -51 -42 -10 -14 -132 -230 -270 -478
-166 -298 -255 -466 -258 -491 -4 -26 1 -50 13 -75 11 -20 454 -477 987 -1016
1056 -1070 996 -1015 1087 -991 34 9 167 140 1007 991 592 599 975 994 986
1017 11 23 16 51 13 75 -6 55 -520 971 -561 1000 l-30 22 -1445 2 c-1316 2
-1448 1 -1478 -14z m1097 -320 c-30 -31 -388 -430 -409 -456 -4 -4 -82 105
-173 243 l-167 250 392 0 392 0 -35 -37z m1324 -213 c-91 -138 -167 -249 -168
-248 -4 6 -390 434 -419 466 l-30 32 392 0 392 0 -167 -250z m-718 -85 l225
-250 -230 -3 c-126 -1 -334 -1 -460 0 l-230 3 227 253 c125 139 231 251 235
250 5 -2 110 -116 233 -253z m-1466 -253 c-77 -1 -200 -1 -274 0 l-134 3 117
210 c64 116 121 216 126 223 6 10 52 -52 157 -210 l149 -223 -141 -3z m2751
218 l119 -215 -140 -3 c-77 -1 -201 -1 -275 0 l-134 3 148 222 c81 122 150
218 154 214 4 -4 62 -103 128 -221z m-2226 -998 c110 -262 215 -513 233 -556
30 -70 31 -78 12 -60 -12 10 -260 261 -551 557 l-530 537 318 0 319 0 199
-478z m1278 459 c-43 -112 -568 -1361 -572 -1361 -4 0 -532 1256 -572 1361 -7
18 11 19 572 19 560 0 579 -1 572 -19z m428 -531 c-299 -303 -547 -553 -551
-556 -5 -3 6 30 24 73 19 43 123 293 233 555 l199 478 319 0 318 0 -542 -550z"/>
<path d="M1055 3060 c-16 -4 -40 -12 -53 -19 -24 -13 -666 -974 -690 -1033
-19 -49 -9 -99 29 -143 38 -43 80 -55 196 -55 l93 0 2 -854 c3 -845 3 -855 24
-882 11 -15 33 -37 48 -48 27 -20 40 -21 381 -21 341 0 354 1 381 21 15 11 37
33 48 48 21 27 21 37 24 882 l2 854 93 0 c116 0 158 12 196 55 38 44 48 94 29
143 -23 58 -666 1020 -691 1033 -33 18 -79 26 -112 19z m204 -678 c89 -134
165 -250 168 -258 4 -11 -5 -14 -38 -14 -53 0 -102 -27 -129 -72 -19 -32 -20
-52 -20 -885 l0 -853 -155 0 -155 0 0 853 c0 833 -1 853 -20 885 -27 44 -76
72 -127 72 -24 0 -43 3 -43 7 0 17 344 523 350 516 4 -4 80 -117 169 -251z"/>
<path d="M4005 3060 c-16 -4 -40 -12 -53 -19 -24 -13 -666 -974 -690 -1033
-19 -49 -9 -99 29 -143 38 -43 80 -55 196 -55 l93 0 2 -854 c3 -845 3 -855 24
-882 11 -15 33 -37 48 -48 27 -20 40 -21 381 -21 341 0 354 1 381 21 15 11 37
33 48 48 21 27 21 37 24 882 l2 854 93 0 c116 0 158 12 196 55 38 44 48 94 29
143 -23 58 -666 1020 -691 1033 -33 18 -79 26 -112 19z m204 -678 c89 -134
165 -250 168 -258 4 -11 -5 -14 -38 -14 -53 0 -102 -27 -129 -72 -19 -32 -20
-52 -20 -885 l0 -853 -155 0 -155 0 0 853 c0 833 -1 853 -20 885 -27 44 -76
72 -127 72 -24 0 -43 3 -43 7 0 17 344 523 350 516 4 -4 80 -117 169 -251z"/>
<path d="M2489 1678 c-43 -29 -695 -1006 -705 -1056 -9 -46 20 -116 59 -144
28 -20 47 -23 149 -26 l116 -4 4 -173 c3 -190 7 -201 72 -249 27 -20 40 -21
381 -21 341 0 354 1 381 21 65 48 69 59 72 249 l4 173 116 4 c102 3 121 6 149
26 39 28 68 98 59 144 -10 50 -662 1027 -705 1056 -22 14 -49 22 -76 22 -27 0
-54 -8 -76 -22z m421 -923 c0 -3 -15 -5 -32 -5 -50 -1 -115 -35 -138 -72 -18
-30 -20 -50 -20 -205 l0 -173 -155 0 -155 0 0 173 c0 155 -2 175 -20 205 -23
38 -88 71 -138 72 -19 0 -32 4 -30 9 2 5 79 124 173 264 l170 255 172 -259
c95 -142 173 -261 173 -264z"/>
</g>
</svg>
