<?xml version="1.0" standalone="no"?>
<!DOCTYPE svg PUBLIC "-//W3C//DTD SVG 20010904//EN"
 "http://www.w3.org/TR/2001/REC-SVG-20010904/DTD/svg10.dtd">
<svg version="1.0" xmlns="http://www.w3.org/2000/svg"
 width="512.000000pt" height="512.000000pt" viewBox="0 0 512.000000 512.000000"
 preserveAspectRatio="xMidYMid meet">

<g transform="translate(0.000000,512.000000) scale(0.100000,-0.100000)"
fill="#000000" stroke="none">
<path d="M815 4841 c-11 -5 -29 -19 -40 -31 -20 -22 -20 -36 -20 -1404 l0
-1381 860 0 860 0 6 100 c4 55 12 120 18 145 6 25 11 50 11 57 0 9 -99 13
-397 15 -395 3 -398 3 -451 27 -99 45 -172 155 -172 261 0 106 73 216 172 261
52 23 59 24 453 29 380 5 401 6 427 25 92 69 90 211 -5 273 l-41 27 -683 5
c-745 5 -702 2 -703 61 0 49 18 54 220 59 l188 5 -89 144 c-105 170 -198 350
-229 441 -65 192 40 427 232 519 179 85 379 52 517 -86 85 -85 124 -172 129
-288 3 -73 0 -102 -18 -155 -28 -85 -115 -250 -227 -432 l-91 -147 387 -3
c341 -3 391 -5 424 -20 67 -30 114 -76 146 -140 71 -142 18 -305 -123 -381
-40 -21 -52 -22 -441 -27 -440 -6 -433 -5 -488 -70 -73 -87 -25 -227 88 -259
26 -7 176 -11 431 -11 l390 0 23 47 c106 219 310 411 536 505 144 60 214 72
400 73 147 0 182 -3 255 -23 190 -52 351 -144 484 -278 l76 -77 0 1041 0 1041
-24 28 -24 28 -1724 2 c-947 1 -1732 -2 -1743 -6z m3147 -588 c24 -21 23 -58
-2 -83 -20 -20 -33 -20 -703 -20 -602 0 -685 2 -705 16 -26 18 -29 60 -5 86
15 17 50 18 706 18 628 0 692 -1 709 -17z m-25 -284 c46 -17 57 -57 26 -91
-15 -17 -46 -18 -564 -18 l-549 0 -16 25 c-20 31 -7 70 28 85 33 13 1040 13
1075 -1z m23 -309 c24 -24 26 -57 3 -82 -15 -17 -41 -18 -414 -18 l-398 0 -15
22 c-21 30 -20 54 4 78 19 19 33 20 410 20 377 0 391 -1 410 -20z m2 -297 c24
-21 23 -58 -2 -83 -19 -19 -33 -20 -258 -20 -264 0 -282 4 -282 60 0 58 7 60
277 60 215 0 249 -2 265 -17z"/>
<path d="M1562 4400 c-142 -30 -249 -154 -259 -300 -6 -76 18 -150 94 -290 63
-116 226 -380 234 -380 6 0 91 134 183 287 20 34 60 110 89 170 51 106 52 110
52 198 0 74 -4 97 -23 133 -72 137 -226 212 -370 182z m135 -115 c57 -17 111
-64 137 -120 28 -59 19 -162 -19 -217 -35 -50 -120 -98 -174 -98 -90 0 -168
47 -206 123 -65 131 0 274 145 318 39 11 62 10 117 -6z"/>
<path d="M1594 4170 c-32 -13 -64 -59 -64 -92 0 -84 77 -131 150 -93 76 39 66
154 -17 186 -29 11 -41 11 -69 -1z"/>
<path d="M315 4091 c-11 -5 -29 -19 -40 -31 -20 -22 -20 -36 -20 -1029 l0
-1006 188 -3 187 -2 0 1040 0 1040 -147 -1 c-82 0 -157 -4 -168 -8z"/>
<path d="M4458 4094 c-5 -4 -8 -360 -8 -792 l0 -785 34 -86 c40 -99 62 -199
72 -323 l7 -88 133 0 134 0 0 1009 0 1010 -24 28 -24 28 -159 3 c-87 2 -161 0
-165 -4z"/>
<path d="M3375 2963 c-303 -47 -579 -261 -702 -543 -18 -41 -42 -117 -54 -168
-19 -79 -21 -112 -16 -235 6 -167 20 -224 87 -363 192 -396 618 -597 1049
-494 254 61 483 245 604 485 65 131 104 327 92 470 -34 397 -294 715 -676 826
-56 16 -107 22 -214 24 -77 2 -153 1 -170 -2z m275 -147 c440 -79 724 -511
620 -946 -67 -279 -285 -498 -565 -570 -105 -27 -261 -27 -372 0 -268 64 -487
276 -565 545 -19 67 -23 102 -22 215 0 125 3 142 33 230 71 207 193 352 380
449 158 82 321 107 491 77z"/>
<path d="M3403 2700 c-263 -48 -473 -253 -527 -513 -31 -151 -14 -286 55 -427
34 -69 58 -101 128 -170 144 -143 282 -196 486 -187 182 8 310 63 434 188 76
76 122 148 159 251 24 65 27 87 27 208 0 150 -9 190 -73 315 -45 88 -171 216
-257 262 -128 67 -301 96 -432 73z"/>
<path d="M250 1681 c0 -134 4 -230 11 -250 23 -65 -53 -61 1268 -61 l1200 0
-49 65 c-27 36 -69 106 -94 157 -43 88 -96 247 -96 289 0 19 -29 19 -1120 19
l-1120 0 0 -219z"/>
<path d="M4547 1893 c-3 -5 -8 -28 -12 -53 -10 -61 -60 -203 -94 -267 l-28
-51 76 -76 76 -76 102 0 c95 0 104 2 132 26 l31 26 0 239 0 239 -139 0 c-77 0
-142 -3 -144 -7z"/>
<path d="M4249 1319 l-96 -97 241 -241 242 -241 47 0 c27 0 61 7 78 15 61 32
87 121 55 183 -8 15 -117 129 -243 253 l-228 226 -96 -98z"/>
<path d="M2030 925 l0 -325 510 0 510 0 0 258 0 258 -101 67 -101 67 -409 0
-409 0 0 -325z"/>
<path d="M1563 460 c-60 -36 -62 -132 -2 -174 21 -14 112 -16 984 -16 894 0
961 2 981 18 62 50 55 150 -13 181 -17 8 -311 11 -971 11 -920 0 -948 -1 -979
-20z"/>
</g>
</svg>
